<svg xmlns:xlink="http://www.w3.org/1999/xlink" preserveAspectRatio="xMidYMid meet" data-bbox="29.5 29.5 141 141" viewBox="29.5 29.5 141 141" height="200" width="200" xmlns="http://www.w3.org/2000/svg" data-type="color" role="presentation" aria-hidden="true" aria-labelledby="svgcid-rq8093-glszte"><defs><style>#comp-l4ws6lfj svg [data-color="1"] {fill: #FFFFFF;}</style></defs><title id="svgcid-rq8093-glszte"></title>
    <g>
        <path d="M100 170.5c-38.874 0-70.5-31.626-70.5-70.5S61.126 29.5 100 29.5s70.5 31.626 70.5 70.5-31.626 70.5-70.5 70.5zm0-133c-34.463 0-62.5 28.037-62.5 62.5s28.037 62.5 62.5 62.5 62.5-28.037 62.5-62.5-28.037-62.5-62.5-62.5zm4 62.5V73.4a4 4 0 0 0-8 0V100a4 4 0 0 0 8 0zm-4 26.6h.066m5.5 0a5.5 5.5 0 0 0-5.5-5.5H100c-3.037 0-5.467 2.463-5.467 5.5s2.496 5.5 5.533 5.5 5.5-2.463 5.5-5.5z" fill="#FFFFFF" data-color="1"></path>
    </g>
</svg>