<svg xmlns:xlink="http://www.w3.org/1999/xlink" preserveAspectRatio="xMidYMid meet" data-bbox="40 40 120 120" viewBox="40 40 120 120" height="200" width="200" xmlns="http://www.w3.org/2000/svg" data-type="color" role="presentation" aria-hidden="true" aria-labelledby="svgcid--l0w4djk111v3"><defs><style>#comp-l4ws7fkr svg [data-color="1"] {fill: #FFFFFF;}</style></defs><title id="svgcid--l0w4djk111v3"></title>
    <g>
        <path fill="#FFFFFF" d="M97.445 128.89l-5.922-5.895 22.896-22.996-22.895-22.994 5.919-5.895 28.765 28.889-28.763 28.891z" data-color="1"></path>
        <path fill="#FFFFFF" d="M84.572 116.15l-5.922-5.893 10.211-10.258L78.65 89.746l5.922-5.898 16.079 16.151-16.079 16.151z" data-color="1"></path>
        <path d="M100 160c-33.084 0-60-26.916-60-60.001C40 66.916 66.916 40 100 40s60 26.916 60 59.999C160 133.084 133.084 160 100 160zm0-111.644c-28.477 0-51.645 23.169-51.645 51.644 0 28.479 23.167 51.648 51.645 51.648s51.645-23.169 51.645-51.648c0-28.476-23.168-51.644-51.645-51.644z" fill="#FFFFFF" data-color="1"></path>
    </g>
</svg>