<svg xmlns:xlink="http://www.w3.org/1999/xlink" preserveAspectRatio="xMidYMid meet" data-bbox="82 57 36 86.001" viewBox="82 57 36 86.001" height="200" width="200" xmlns="http://www.w3.org/2000/svg" data-type="color" role="presentation" aria-hidden="true" aria-labelledby="svgcid-307ulk-5s4zaz"><defs><style>#comp-l4ws77oc svg [data-color="1"] {fill: #FFFFFF;}</style></defs><title id="svgcid-307ulk-5s4zaz"></title>
    <g>
        <path d="M117.172 74.416c-4.606-3.156-10.089-4.823-15.286-5.007v-10.5A1.898 1.898 0 0 0 100 57a1.898 1.898 0 0 0-1.886 1.909v10.64c-4.054.451-7.733 1.878-10.399 4.325-2.91 2.674-4.364 6.28-4.091 10.154.366 5.189 3.696 10.303 9.277 14.12l12.224 6.894c4.477 3.067 7.207 7.127 7.49 11.141.192 2.719-.801 5.159-2.863 7.055-5.542 5.092-16.666 4.702-24.809-.872a1.87 1.87 0 0 0-2.618.512 1.92 1.92 0 0 0 .506 2.649c4.607 3.155 10.086 4.816 15.284 5.001v10.564c0 1.054.845 1.909 1.886 1.909a1.898 1.898 0 0 0 1.886-1.909v-10.735c4.049-.452 7.737-1.842 10.399-4.29 2.91-2.674 4.364-6.28 4.091-10.154-.366-5.189-3.696-10.303-9.277-14.118l-12.221-6.894c-4.479-3.069-7.21-7.13-7.492-11.143-.192-2.721.801-5.159 2.863-7.055 5.542-5.092 16.668-4.699 24.806.875.864.589 2.036.36 2.62-.509a1.926 1.926 0 0 0-.504-2.653z" fill="#FFFFFF" data-color="1"></path>
    </g>
</svg>